# xmcd
#
# Track frame offsets:
#	150
#	20569
#	37910
#	53097
#	70791
#	87224
#	101436
#	120343
#	134134
#	152045
#
# Disc length: 2291 seconds
# Revision: 1
# Processed by: cddbd v1.5.2PL0 Copyright (c) Steve Scherf et al.
# Submitted via: dBpowerAMP V12.0
#
DISCID=7a08f10a
DTITLE=PJK - World Citizens
DYEAR=2012
DGENRE=Blues
TTITLE0=Turn It Around (Slide On Remix)
TTITLE1=See You
TTITLE2=We're Free
TTITLE3=World Citizens
TTITLE4=Been So Long
TTITLE5=Living It Up in Nirvana
TTITLE6=Rob Wolfe
TTITLE7=Little Green Men
TTITLE8=Lies
TTITLE9=Slide On
EXTD=
EXTT0=
EXTT1=
EXTT2=
EXTT3=
EXTT4=
EXTT5=
EXTT6=
EXTT7=
EXTT8=
EXTT9=
PLAYORDER=
